<svg width="17" height="16" viewBox="0 0 17 16" fill="none" xmlns="http://www.w3.org/2000/svg">
<path d="M11.05 14.4H11.9V16H0V14.4H0.85V1.6C0.85 0.72 1.615 0 2.55 0H9.35C9.80087 0 10.2333 0.168571 10.5521 0.468629C10.8709 0.768687 11.05 1.17565 11.05 1.6V14.4ZM2.55 1.6V6.4H9.35V1.6H2.55ZM11.05 8H11.9C12.3509 8 12.7833 8.16857 13.1021 8.46863C13.4209 8.76869 13.6 9.17565 13.6 9.6V12C13.6 12.2122 13.6896 12.4157 13.849 12.5657C14.0084 12.7157 14.2246 12.8 14.45 12.8C14.6754 12.8 14.8916 12.7157 15.051 12.5657C15.2104 12.4157 15.3 12.2122 15.3 12V8L13.6 6.4V4.8L11.9 3.2L12.75 2.4L17 6.4V12C17 12.6365 16.7313 13.247 16.2531 13.6971C15.7749 14.1471 15.1263 14.4 14.45 14.4C13.7737 14.4 13.1251 14.1471 12.6469 13.6971C12.1687 13.247 11.9 12.6365 11.9 12V9.6H11.05V8Z" fill="#F0EEFF"/>
</svg>
