<svg width="35" height="40" viewBox="0 0 35 40" fill="none" xmlns="http://www.w3.org/2000/svg">
<path opacity="0.75" d="M17.4974 28.8688C14.9834 28.865 12.5324 29.6264 10.4945 31.0441C10.3435 31.1448 10.1583 31.1863 9.97664 31.1603C9.79497 31.1344 9.63036 31.0428 9.51626 30.9042L6.82489 27.6973C6.76308 27.6225 6.71764 27.5364 6.69133 27.4442C6.66501 27.352 6.65836 27.2557 6.67179 27.1609C6.68521 27.0662 6.71842 26.9751 6.76941 26.893C6.82041 26.811 6.88813 26.7398 6.9685 26.6837C10.0167 24.5141 13.7071 23.3433 17.4974 23.3433C21.2878 23.3433 24.9782 24.5141 28.0264 26.6837C28.1067 26.7398 28.1744 26.811 28.2254 26.893C28.2764 26.9751 28.3096 27.0662 28.3231 27.1609C28.3365 27.2557 28.3298 27.352 28.3035 27.4442C28.2772 27.5364 28.2318 27.6225 28.17 27.6973L25.4769 30.9058C25.3631 31.0444 25.1986 31.1358 25.0171 31.1615C24.8356 31.1872 24.6508 31.1452 24.5004 31.0441C22.4623 29.6266 20.0114 28.8652 17.4974 28.8688Z" fill="white"/>
<path opacity="0.5" d="M21.3523 35.8194L18.0714 39.7389C18.0029 39.8204 17.9164 39.8862 17.8182 39.9314C17.72 39.9765 17.6125 40 17.5037 40C17.3948 40 17.2874 39.9765 17.1891 39.9314C17.0909 39.8862 17.0044 39.8204 16.936 39.7389L13.6398 35.8194C13.5755 35.7429 13.5285 35.6542 13.502 35.5591C13.4755 35.464 13.47 35.3647 13.486 35.2674C13.5019 35.1702 13.5389 35.0772 13.5945 34.9946C13.6501 34.912 13.7231 34.8416 13.8088 34.7878C14.9133 34.1151 16.1934 33.7581 17.5003 33.7581C18.8072 33.7581 20.0873 34.1151 21.1918 34.7878C21.2771 34.842 21.3496 34.9129 21.4045 34.9958C21.4595 35.0787 21.4957 35.1719 21.5108 35.2692C21.526 35.3665 21.5197 35.4657 21.4924 35.5605C21.4651 35.6553 21.4174 35.7435 21.3523 35.8194Z" fill="white"/>
<path d="M34.72 18.7567C33.4441 17.815 32.0876 16.9789 30.6652 16.2576L30.2901 16.0705V12.6538L28.1496 11.1227L26.0123 12.6619V14.3866C25.8434 14.3361 25.6744 14.2857 25.5055 14.2385V12.4244L26.8334 11.4726V6.28723L20.2917 4.58373V8.46744H21.4135V13.3908L20.9067 13.3274V8.95555H14.4326V13.2899C14.2636 13.3078 14.0947 13.3257 13.9257 13.3469V8.46581H16.9516V0.22168L9.17992 2.24732V9.53477H11.1296V13.8252C10.9606 13.8632 10.7917 13.9022 10.6227 13.9424V10.0229H5.53737V15.6784L5.24677 15.8118C3.48865 16.6256 1.82243 17.6119 0.274593 18.7551C0.199306 18.8128 0.136649 18.8844 0.0902446 18.9656C0.0438398 19.0468 0.0146079 19.136 0.00423893 19.2281C-0.00613004 19.3203 0.00256959 19.4135 0.0298349 19.5024C0.0571001 19.5913 0.10239 19.674 0.163086 19.746L2.9913 23.1302C3.11205 23.272 3.28535 23.363 3.47454 23.384C3.66374 23.4049 3.85397 23.3542 4.005 23.2424C7.888 20.4111 12.6251 18.8789 17.4956 18.8789C22.3661 18.8789 27.1032 20.4111 30.9862 23.2424C31.1369 23.355 31.3274 23.4062 31.5168 23.3853C31.7063 23.3643 31.8797 23.2727 31.9999 23.1302L34.8349 19.7541C34.8964 19.6818 34.9424 19.5984 34.97 19.5087C34.9976 19.4191 35.0063 19.325 34.9956 19.2321C34.9849 19.1392 34.955 19.0493 34.9076 18.9676C34.8603 18.886 34.7965 18.8143 34.72 18.7567Z" fill="white"/>
</svg>
