<svg width="15" height="16" viewBox="0 0 15 16" fill="none" xmlns="http://www.w3.org/2000/svg">
<path d="M14.6984 14.6314L13.6395 15.7674C13.4998 15.9164 13.3108 16 13.1138 16C12.9168 16 12.7278 15.9164 12.5881 15.7674L3.72911 6.27975C3.48661 6.35511 3.23584 6.39547 2.98341 6.39975C2.50862 6.39938 2.04077 6.27744 1.61876 6.04405C1.19675 5.81066 0.83277 5.47258 0.557081 5.0579C0.281393 4.64323 0.101961 4.16394 0.0337052 3.65989C-0.0345511 3.15585 0.0103399 2.6416 0.164646 2.15991L2.05873 4.19183L2.45396 3.76785L3.51285 2.6319L3.90808 2.20791L2.01399 0.175993C2.463 0.0104582 2.94237 -0.0376995 3.41222 0.0355237C3.88208 0.108747 4.32885 0.301236 4.7154 0.596986C5.10194 0.892736 5.4171 1.2832 5.63465 1.73592C5.85221 2.18864 5.96588 2.69054 5.96622 3.19987C5.96223 3.47068 5.92462 3.7397 5.85436 3.99984L14.6984 13.5035C14.8373 13.6533 14.9153 13.8561 14.9153 14.0674C14.9153 14.2788 14.8373 14.4815 14.6984 14.6314ZM0.216845 13.5035C0.0779572 13.6533 0 13.8561 0 14.0674C0 14.2788 0.0779572 14.4815 0.216845 14.6314L1.27574 15.7674C1.41546 15.9164 1.60446 16 1.80147 16C1.99847 16 2.18747 15.9164 2.32719 15.7674L6.40618 11.3995L4.29584 9.13564M13.4233 0L10.4404 1.59994V3.19987L8.82226 4.9358L10.3137 6.53574L11.9318 4.79981H13.4233L14.9147 1.59994L13.4233 0Z" fill="#F0EEFF"/>
</svg>
