<svg width="16" height="18" viewBox="0 0 16 18" fill="none" xmlns="http://www.w3.org/2000/svg">
<path d="M12.6667 5.8C12.6667 4.52696 12.175 3.30606 11.2998 2.40589C10.4247 1.50571 9.23768 1 8 1C6.76232 1 5.57534 1.50571 4.70017 2.40589C3.825 3.30606 3.33333 4.52696 3.33333 5.8C3.33333 11.4 1 13 1 13H15C15 13 12.6667 11.4 12.6667 5.8Z" stroke="white" stroke-width="1.8" stroke-linecap="round" stroke-linejoin="round"/>
<path d="M9 16C8.89838 16.3042 8.75251 16.5566 8.57701 16.7321C8.40151 16.9076 8.20253 17 8 17C7.79747 17 7.59849 16.9076 7.42299 16.7321C7.24749 16.5566 7.10162 16.3042 7 16" stroke="white" stroke-width="1.8" stroke-linecap="round" stroke-linejoin="round"/>
<circle cx="13" cy="3" r="2" fill="#F15F5F"/>
</svg>
