<svg width="20" height="16" viewBox="0 0 20 16" fill="none" xmlns="http://www.w3.org/2000/svg">
<g clip-path="url(#clip0_201_18)">
<path d="M16.3868 5.65332L16.075 5.33333L14.8573 2.00533C14.6398 1.41361 14.2658 0.906544 13.7832 0.54923C13.3006 0.191917 12.7315 0.000657393 12.149 -1.06673e-07H6.3037C5.6269 -0.002121 4.97042 0.253003 4.44629 0.721826C3.92215 1.19065 3.56288 1.84411 3.42978 2.57066L2.92319 5.33333L2.74783 5.41527C1.9727 5.41527 1.34751 5.68542 0.799406 6.28554C0.251304 6.88565 0.0268869 7.68463 0.0268869 8.53333L0.0267176 11.7333C0.0267176 12.0162 -0.0721661 12.2875 0.110535 12.4876C0.293235 12.6876 0.541029 12.8 0.799406 12.8H1.77362C1.77362 13.6487 2.08154 14.4626 2.62964 15.0627C3.17774 15.6628 3.92112 16 4.69625 16C5.47139 16 6.21477 15.6628 6.76287 15.0627C7.31097 14.4626 7.61889 13.6487 7.61889 12.8H11.5157C11.5157 13.6487 11.8237 14.4626 12.3718 15.0627C12.9199 15.6628 13.6632 16 14.4384 16C15.2135 16 15.9569 15.6628 16.505 15.0627C17.0531 14.4626 17.361 13.6487 17.361 12.8H19.0238C19.2821 12.8 19.4675 12.6876 19.6502 12.4876C19.9697 12.1378 19.8708 12.0457 19.998 11.7333V8.53331C19.998 7.68462 20.059 6.88565 19.5109 6.28554C18.9628 5.68542 17.1619 5.65332 16.3868 5.65332ZM10.5415 2.00533H12.149C12.3424 2.00725 12.532 2.01364 12.6916 2.13332C12.8513 2.253 13.1072 2.46986 13.1787 2.66665L13.9707 5.65332H10.5415V2.00533ZM5.06907 2.91378C5.11461 2.66922 5.32827 2.45654 5.50628 2.30062C5.68429 2.1447 6.05546 2.0003 6.28337 2.00533H8.5931V5.65332H4.91058L5.06907 2.91378ZM4.69625 13.8667C4.50357 13.8667 4.31522 13.8041 4.15501 13.6869C3.9948 13.5697 3.86993 13.4031 3.7962 13.2082C3.72246 13.0133 3.70317 12.7988 3.74076 12.5919C3.77835 12.385 3.87114 12.1949 4.00738 12.0457C4.14363 11.8966 4.31721 11.795 4.50619 11.7538C4.69517 11.7127 4.89105 11.7338 5.06907 11.8145C5.24708 11.8953 5.39923 12.032 5.50628 12.2074C5.61333 12.3828 5.67046 12.589 5.67046 12.8C5.67046 13.0829 5.56782 13.3542 5.38512 13.5542C5.20242 13.7543 4.95463 13.8667 4.69625 13.8667ZM14.4384 13.8667C14.2457 13.8667 14.0573 13.8041 13.8971 13.6869C13.7369 13.5697 13.6121 13.4031 13.5383 13.2082C13.4646 13.0133 13.4453 12.7988 13.4829 12.5919C13.5205 12.385 13.6132 12.1949 13.7495 12.0457C13.8857 11.8966 14.0593 11.795 14.2483 11.7538C14.4373 11.7127 14.6332 11.7338 14.8112 11.8145C14.9892 11.8953 15.1413 12.032 15.2484 12.2074C15.3554 12.3828 15.4126 12.589 15.4126 12.8C15.4126 13.0829 15.3099 13.3542 15.1272 13.5542C14.9445 13.7543 14.6967 13.8667 14.4384 13.8667ZM18.3352 10.6667H16.6011C16.3272 10.3367 15.9933 10.073 15.6208 9.89261C15.2484 9.7122 14.8456 9.619 14.4384 9.619C14.0311 9.619 13.6283 9.7122 13.2559 9.89261C12.8834 10.073 12.5496 10.3367 12.2756 10.6667H6.859C6.58507 10.3367 6.25118 10.073 5.87873 9.89261C5.50629 9.7122 5.10352 9.619 4.69625 9.619C4.28899 9.619 3.88622 9.7122 3.51377 9.89261C3.14133 10.073 2.80743 10.3367 2.5335 10.6667H1.77362V8.53333C1.77362 8.25043 1.87626 7.97912 2.05896 7.77908C2.24166 7.57904 2.48945 7.46666 2.74783 7.46666H16.3868C16.6452 7.46666 17.8669 7.57904 18.0496 7.77908C18.2323 7.97912 18.3352 8.14973 18.3352 8.43262V10.6667Z" fill="white"/>
</g>
<defs>
<clipPath id="clip0_201_18">
<rect width="20" height="16" fill="white"/>
</clipPath>
</defs>
</svg>
